<svg xmlns="http://www.w3.org/2000/svg" xmlns:xlink="http://www.w3.org/1999/xlink" version="1.1" x="0px" y="0px" viewBox="-512 741 97.8 67" style="enable-background:new -512 741 97.8 53.6;" xml:space="preserve"><path d="M-416,741h-94.2c-1,0-1.8,0.8-1.8,1.8s0.8,1.8,1.8,1.8h94.2c1,0,1.8-0.8,1.8-1.8S-415,741-416,741z"/><path d="M-416,766h-94.2c-1,0-1.8,0.8-1.8,1.8s0.8,1.8,1.8,1.8h94.2c1,0,1.8-0.8,1.8-1.8S-415,766-416,766z"/><path d="M-416,791h-94.2c-1,0-1.8,0.8-1.8,1.8s0.8,1.8,1.8,1.8h94.2c1,0,1.8-0.8,1.8-1.8S-415,791-416,791z"/><text x="-512" y="809.6" fill="#000000" font-size="5px" font-weight="bold" font-family="'Helvetica Neue', Helvetica, Arial-Unicode, Arial, Sans-serif">Created by Dreshad Williams</text><text x="-512" y="814.6" fill="#000000" font-size="5px" font-weight="bold" font-family="'Helvetica Neue', Helvetica, Arial-Unicode, Arial, Sans-serif">from the Noun Project</text></svg>